<svg width="40" height="40" viewBox="0 0 40 40" fill="none" xmlns="http://www.w3.org/2000/svg">
<rect width="40" height="40" rx="20" fill="#AAAAAA"/>
<path d="M26.8154 21.9138C26.7871 21.9863 26.6805 22.2962 26.5811 22.5512C25.9985 24.155 24.4788 26.78 23.6834 27.5812C23.5626 27.71 23.2572 27.9825 23.094 28C22.9377 28 22.7886 27.91 22.6464 27.7275C22.4691 27.4725 22.3268 27.0713 22.2489 26.5975C22.1987 26.2688 22.1208 25.285 22.1208 25.2675C22.0429 24.1913 22 22.4425 22 20.51C22 18.6688 22.0429 16.9913 22.1067 15.8988C22.114 15.8813 22.1919 14.6587 22.2772 14.24C22.4335 13.475 22.7389 13 23.0658 13H23.094C23.3069 13.0187 23.7545 13.4938 23.7545 13.5113C24.5071 14.3138 25.9917 16.81 26.5884 18.4688C26.5884 18.4688 26.7565 18.895 26.8295 19.1613C26.9435 19.5438 27 20.0175 27 20.4913C27 21.02 26.9362 21.5125 26.8154 21.9138Z" fill="white"/>
<path d="M13.1846 19.0862C13.2129 19.0137 13.3195 18.7038 13.4189 18.4488C14.0015 16.845 15.5212 14.22 16.3166 13.4188C16.4374 13.29 16.7428 13.0175 16.906 13C17.0623 13 17.2114 13.09 17.3536 13.2725C17.5309 13.5275 17.6732 13.9287 17.7511 14.4025C17.8013 14.7312 17.8792 15.715 17.8792 15.7325C17.9571 16.8087 18 18.5575 18 20.49C18 22.3312 17.9571 24.0087 17.8933 25.1012C17.886 25.1187 17.8081 26.3413 17.7228 26.76C17.5665 27.525 17.2611 28 16.9342 28H16.906C16.6931 27.9813 16.2455 27.5062 16.2455 27.4887C15.4929 26.6862 14.0083 24.19 13.4116 22.5312C13.4116 22.5312 13.2435 22.105 13.1705 21.8387C13.0565 21.4562 13 20.9825 13 20.5087C13 19.98 13.0638 19.4875 13.1846 19.0862Z" fill="white"/>
</svg>
